PathFileType	4	(X/Y/Z)	/home/utkubuntu/opensim/opensim_mycode/release_code/bioimitation/imitation_envs/data/02905/02905_PRE/experimental_data/static.trc
DataRate	CameraRate	NumFrames	NumMarkers	Units	OrigDataRate	OrigDataStartFrame	OrigNumFrames
100.000000	100.000000	4	53	mm	100.000000	500	1000
Frame#	Time	C7			CLAV			LANK			LASI			LBHD			LELB			LFHD			LFIN			LFMH			LHEE			LKNE			LKNI			LMED			LMET			LMIF			LPSI			LSHO			LTAD			LTHAP			LTHI			LTIAD			LTIB			LTOE			LTTU			LWRA			LWRB			RANK			RASI			RBAK			RBHD			RELB			RFHD			RFIN			RFMH			RHEE			RKNE			RKNI			RMED			RMET			RMIF			RPSI			RSHO			RTAD			RTHAP			RTHI			RTIAD			RTIB			RTOE			RTTU			RWRA			RWRB			STRN			T10			
		X1	Y1	Z1	X2	Y2	Z2	X3	Y3	Z3	X4	Y4	Z4	X5	Y5	Z5	X6	Y6	Z6	X7	Y7	Z7	X8	Y8	Z8	X9	Y9	Z9	X10	Y10	Z10	X11	Y11	Z11	X12	Y12	Z12	X13	Y13	Z13	X14	Y14	Z14	X15	Y15	Z15	X16	Y16	Z16	X17	Y17	Z17	X18	Y18	Z18	X19	Y19	Z19	X20	Y20	Z20	X21	Y21	Z21	X22	Y22	Z22	X23	Y23	Z23	X24	Y24	Z24	X25	Y25	Z25	X26	Y26	Z26	X27	Y27	Z27	X28	Y28	Z28	X29	Y29	Z29	X30	Y30	Z30	X31	Y31	Z31	X32	Y32	Z32	X33	Y33	Z33	X34	Y34	Z34	X35	Y35	Z35	X36	Y36	Z36	X37	Y37	Z37	X38	Y38	Z38	X39	Y39	Z39	X40	Y40	Z40	X41	Y41	Z41	X42	Y42	Z42	X43	Y43	Z43	X44	Y44	Z44	X45	Y45	Z45	X46	Y46	Z46	X47	Y47	Z47	X48	Y48	Z48	X49	Y49	Z49	X50	Y50	Z50	X51	Y51	Z51	X52	Y52	Z52	X53	Y53	Z53	

501	5	773.5029907226562	1444.725952148438	-280.4110107421872	878.0170288085938	1350.527954101562	-262.804992675781	723.822998046875	78.0960006713868	-362.2420043945312	900.5159912109375	944.7280273437501	-359.0409851074216	803.7620239257812	1537.531982421875	-353.1770019531247	725.2260131835938	1098.246948242188	-552.5200195312498	925.4509887695312	1637.057983398438	-320.253997802734	808.9829711914062	854.2890014648439	-680.6719970703123	862.8560180664062	36.29499816894538	-290.3930053710938	672.1649780273438	39.42499923706062	-333.8789978027344	782.3359985351562	469.5029907226563	-382.6380004882811	778.5139770507812	458.0520019531251	-266.501007080078	729.594970703125	88.25900268554693	-281.9939880371094	833.7550048828125	27.51099967956551	-384.1499938964844	803.8590087890625	73.72100067138679	-329.2420043945312	734.3469848632812	959.6430053710939	-301.4989929199216	806.218017578125	1384.10302734375	-434.1919860839841	858.4089965820312	527.4680175781251	-314.0050048828124	905.5650024414062	692.2540283203126	-318.105987548828	808.6119995117188	565.6740112304689	-429.1969909667968	776.8939819335938	208.1150054931641	-322.7040100097656	743.6849975585938	299.4949951171876	-434.4769897460937	858.9459838867188	40.75199890136726	-335.9039916992188	811.8599853515625	383.9479980468751	-324.1489868164062	836.135986328125	890.4990234375001	-634.4790039062498	770.6799926757812	890.2800292968751	-659.8900146484373	713.14697265625	74.98999786376956	-101.4690017700195	879.3920288085938	957.6630249023438	-113.4189987182615	697.1959838867188	1340.119018554688	-157.669998168945	789.9349975585938	1525.31005859375	-193.7030029296872	677.8870239257812	1105.51904296875	-15.43599987030005	908.5260009765625	1622.6689453125	-196.4239959716793	735.405029296875	858.22802734375	162.0050048828127	854.4869995117188	36.12200164794925	-159.3580017089844	653.6329956054688	35.17499923706058	-131.2550048828125	796.72998046875	474.93798828125	-93.02899932861318	793.9190063476562	464.2239990234376	-212.6069946289061	715.6719970703125	85.05699920654301	-184.6300048828125	813.9600219726562	26.70199966430665	-65.97799682617188	802.1740112304688	67.39299774169925	-130.3730010986328	725.8740234375	966.22802734375	-199.6529998779295	777.1129760742188	1393.837036132812	-97.81099700927703	873.760009765625	553.3670043945312	-139.1799926757811	908.8040161132812	719.4219970703125	-119.8229980468748	807.06298828125	588.677001953125	-39.98500061035143	787.6539916992188	256.4429931640626	-143.1399993896484	738.239013671875	297.75	-34.68399810791009	846.8900146484375	39.46599960327151	-114.0299987792969	828.2069702148438	394.7579956054688	-144.2279968261718	767.4080200195312	899.1069946289062	112.2570037841799	696.6370239257812	894.7579956054688	122.6610031127932	898.875	1191.526977539062	-253.7910003662107	693.5789794921875	1147.237060546875	-268.8689880371091	
502	5.01	773.5	1444.73095703125	-280.4030151367184	877.9600219726562	1350.5009765625	-262.7959899902341	723.8200073242188	78.09799957275399	-362.2510070800781	900.5430297851562	944.7310180664064	-359.0939941406248	803.7979736328125	1537.579956054688	-353.1419982910153	725.197021484375	1098.282958984375	-552.5599975585935	925.5120239257812	1637.052978515625	-320.1579895019528	808.9929809570312	854.3540039062501	-680.7369995117185	862.8579711914062	36.29700088500983	-290.3919982910156	672.1669921875	39.42800140380866	-333.8810119628906	782.3679809570312	469.5010070800782	-382.6600036621093	778.5180053710938	458.0570068359376	-266.5249938964843	729.5910034179688	88.26100158691412	-282.0029907226562	833.7559814453125	27.51099967956551	-384.1579895019531	803.8569946289062	73.72200012207038	-329.2449951171875	734.3579711914062	959.6250000000001	-301.5480041503904	806.2210083007812	1384.116943359375	-434.1910095214841	858.4329833984375	527.4699707031251	-314.0299987792968	905.593994140625	692.2550048828126	-318.1300048828123	808.6430053710938	565.6740112304689	-429.2269897460936	776.8740234375	208.1150054931641	-322.7219848632812	743.698974609375	299.4909973144532	-434.4970092773437	858.9500122070312	40.75500106811531	-335.9030151367188	811.8779907226562	383.9500122070313	-324.1690063476562	836.1500244140625	890.5599975585939	-634.543029785156	770.7080078125	890.3300170898439	-659.960021972656	713.135009765625	74.98899841308597	-101.4720001220703	879.39599609375	957.6580200195312	-113.4560012817381	697.1610107421875	1340.079956054688	-157.7149963378903	789.9340209960938	1525.305053710938	-193.6759948730465	677.791015625	1105.453002929688	-15.55099964141821	908.5700073242188	1622.630004882812	-196.337005615234	735.1740112304688	858.10498046875	161.8560028076174	854.4879760742188	36.12300109863285	-159.3569946289062	653.6329956054688	35.17800140380862	-131.2610015869141	796.7650146484375	474.9400024414062	-93.06400299072256	793.9520263671875	464.2179870605469	-212.6380004882811	715.6749877929688	85.05400085449223	-184.6399993896484	813.9609985351562	26.70299911499025	-65.98100280761719	802.1790161132812	67.39399719238284	-130.3789978027343	725.8599853515625	966.218994140625	-199.6990051269529	777.0250244140625	1393.79296875	-97.81700134277312	873.7919921875	553.3660278320312	-139.2010040283202	908.8259887695312	719.4219970703125	-119.8539962768553	807.0689697265625	588.6740112304688	-40.01800155639636	787.6710205078125	256.4410095214844	-143.1529998779296	738.25	297.7560119628906	-34.70999908447259	846.89599609375	39.4679985046387	-114.0279998779297	828.2260131835938	394.7520141601563	-144.2480010986327	767.2160034179688	898.9959716796875	112.1380004882814	696.416015625	894.6309814453125	122.5000000000002	898.8579711914062	1191.52197265625	-253.804992675781	693.5869750976562	1147.223999023438	-268.919006347656	
503	5.02	773.489990234375	1444.734008789062	-280.3940124511715	877.89599609375	1350.472045898438	-262.7890014648435	723.81201171875	78.09999847412118	-362.2579956054688	900.5670166015625	944.7340087890626	-359.1449890136716	803.8330078125	1537.628051757812	-353.1099853515622	725.1699829101562	1098.317993164063	-552.606018066406	925.5650024414062	1637.053955078125	-320.0629882812497	809.0009765625	854.4130249023439	-680.794982910156	862.85498046875	36.29999923706061	-290.3919982910156	672.1640014648438	39.43099975585945	-333.8819885253906	782.406005859375	469.5000000000001	-382.6759948730468	778.5189819335938	458.0660095214844	-266.5469970703124	729.5859985351562	88.26499938964849	-282.010009765625	833.7540283203125	27.51199913024911	-384.1669921875	803.8510131835938	73.72200012207038	-329.2470092773438	734.3870239257812	959.6049804687501	-301.5880126953123	806.218994140625	1384.125	-434.1929931640622	858.4390258789062	527.4699707031251	-314.053009033203	905.6160278320312	692.2579956054689	-318.1510009765623	808.6640014648438	565.6749877929689	-429.2560119628905	776.8560180664062	208.1199951171876	-322.7380065917968	743.7080078125	299.4869995117189	-434.5159912109374	858.947998046875	40.75899887084968	-335.9039916992188	811.8889770507812	383.9519958496094	-324.1879882812499	836.1580200195312	890.6110229492189	-634.5919799804685	770.7329711914062	890.3820190429689	-660.0269775390623	713.1220092773438	74.99099731445315	-101.4779968261719	879.39599609375	957.6539916992188	-113.4929962158201	697.1220092773438	1340.0400390625	-157.7669982910153	789.9229736328125	1525.296997070312	-193.6549987792965	677.6900024414062	1105.385009765625	-15.67399978637671	908.6019897460938	1622.593017578125	-196.2499999999996	734.9400024414062	857.97998046875	161.6990051269533	854.4879760742188	36.12500000000004	-159.3549957275391	653.6320190429688	35.181999206543	-131.2660064697266	796.8040161132812	474.9400024414062	-93.10399627685537	793.9819946289062	464.2120056152344	-212.6649932861327	715.6740112304688	85.05400085449223	-184.6479949951172	813.9550170898438	26.70499992370607	-65.98400115966797	802.1790161132812	67.39499664306643	-130.3829956054687	725.8410034179688	966.2139892578125	-199.7480010986326	776.9299926757812	1393.754028320312	-97.82700347900359	873.8140258789062	553.3670043945312	-139.2169952392577	908.843017578125	719.4249877929688	-119.8779983520506	807.072021484375	588.6740112304688	-40.04999923706042	787.6849975585938	256.4419860839844	-143.1640014648437	738.2550048828125	297.760986328125	-34.73199844360345	846.9000244140625	39.47200012207034	-114.0250015258789	828.2449951171875	394.7470092773438	-144.2649993896484	767.02197265625	898.8800048828125	112.0110015869143	696.1959838867188	894.4929809570312	122.3300018310549	898.8380126953125	1191.517944335938	-253.8130035400388	693.5859985351562	1147.215942382812	-268.9769897460935	
504	5.03	773.4739990234375	1444.738037109375	-280.3880004882809	877.8259887695312	1350.444946289062	-262.7829895019528	723.801025390625	78.10299682617196	-362.2619934082031	900.5869750976562	944.7360229492189	-359.1910095214841	803.8699951171875	1537.677978515625	-353.0830078124997	725.14697265625	1098.348999023438	-552.6530151367185	925.6119995117188	1637.06396484375	-319.9689941406247	809.0059814453125	854.4630126953126	-680.8439941406248	862.8510131835938	36.3019981384278	-290.3909912109375	672.1589965820312	39.43299865722663	-333.8829956054688	782.4450073242188	469.4989929199219	-382.6910095214843	778.52099609375	458.0750122070313	-266.5679931640624	729.5800170898438	88.26999664306646	-282.0150146484375	833.7490234375	27.51399993896493	-384.1730041503906	803.844970703125	73.72200012207038	-329.2470092773438	734.4329833984375	959.5780029296876	-301.627014160156	806.2150268554688	1384.126953125	-434.1969909667966	858.4349975585938	527.4699707031251	-314.074005126953	905.6320190429688	692.2609863281251	-318.1709899902342	808.6790161132812	565.6740112304689	-429.282989501953	776.8489990234375	208.1250000000001	-322.7479858398437	743.7139892578125	299.4819946289064	-434.5320129394531	858.9429931640625	40.76300048828132	-335.9039916992188	811.89599609375	383.9540100097657	-324.2040100097656	836.1580200195312	890.6489868164064	-634.6259765624998	770.7470092773438	890.4290161132814	-660.085998535156	713.114013671875	74.99500274658206	-101.4860000610351	879.39501953125	957.6530151367188	-113.5299987792967	697.0759887695312	1339.9990234375	-157.8170013427732	789.9039916992188	1525.286987304688	-193.6410064697262	677.5859985351562	1105.31494140625	-15.80000019073462	908.6199951171875	1622.56005859375	-196.1640014648434	734.7069702148438	857.85400390625	161.5359954833986	854.4869995117188	36.12799835205082	-159.35400390625	653.6320190429688	35.18299865722659	-131.2700042724609	796.8410034179688	474.9389953613281	-93.14199829101553	794.010009765625	464.2049865722657	-212.6869964599608	715.6699829101562	85.05400085449223	-184.6529998779297	813.9450073242188	26.70800018310548	-65.98400115966797	802.1749877929688	67.39700317382815	-130.3849945068359	725.8289794921875	966.208984375	-199.7960052490232	776.8319702148438	1393.718994140625	-97.83699798583953	873.8259887695312	553.3660278320312	-139.2299957275389	908.8489990234375	719.427001953125	-119.8980026245116	807.0709838867188	588.6740112304688	-40.07799911499011	787.6950073242188	256.4429931640626	-143.1739959716796	738.2570190429688	297.7650146484375	-34.74999999999994	846.9010009765625	39.47800064086917	-114.0240020751953	828.2630004882812	394.7439880371094	-144.2810058593749	766.8280029296875	898.760986328125	111.8750000000002	695.9840087890625	894.35498046875	122.1520004272463	898.8179931640625	1191.515991210938	-253.815002441406	693.5859985351562	1147.2080078125	-269.0360107421873	
